Nagaraja Cholan MA, MLA (2013) - Lotus Upscaled 720p - XviD AC3 - Team XDN

Format                                   : AVI
Format/Info                              : Audio Video Interleave
File size                                : 1.73 GiB
Duration                                 : 2h 16mn
Overall bit rate                         : 1 818 Kbps

Video
ID                                       : 0
Format                                   : MPEG-4 Visual
Format profile                           : Advanced Simple@L5
Format settings, BVOP                    : 2
Format settings, QPel                    : Yes
Format settings, GMC                     : No warppoints
Format settings, Matrix                  : Default (H.263)
Codec ID                                 : XVID
Codec ID/Hint                            : XviD
Duration                                 : 2h 16mn
Bit rate                                 : 1 361 Kbps
Width                                    : 1 280 pixels
Height                                   : 544 pixels
Display aspect ratio                     : 2.35:1
Frame rate                               : 29.970 fps
Color space                              : YUV
Chroma subsampling                       : 4:2:0
Bit depth                                : 8 bits
Scan type                                : Progressive
Compression mode                         : Lossy
Bits/(Pixel*Frame)                       : 0.065
Stream size                              : 1.29 GiB (75%)
Writing library                          : XviD 1.2.1 (UTC 2008-12-04)

Audio
ID                                       : 1
Format                                   : AC-3
Format/Info                              : Audio Coding 3
Mode extension                           : CM (complete main)
Format settings, Endianness              : Big
Codec ID                                 : 2000
Duration                                 : 2h 16mn
Bit rate mode                            : Constant
Bit rate                                 : 448 Kbps
Channel(s)                               : 6 channels
Channel positions                        : Front: L C R, Side: L R, LFE
Sampling rate                            : 48.0 KHz
Bit depth                                : 16 bits
Compression mode                         : Lossy
Stream size                              : 436 MiB (25%)
 
http://savemyimage.com/images/2013/06/15/FO7xW.png 
http://savemyimage.com/images/2013/06/15/HBbG7.png 
http://savemyimage.com/images/2013/06/15/2ajY.png 
http://savemyimage.com/images/2013/06/15/OnEir.png 
http://savemyimage.com/images/2013/06/15/ZEI4.png 
http://savemyimage.com/images/2013/06/15/naKcg.png 
http://savemyimage.com/images/2013/06/15/G01Oe.png
